<svg xmlns="http://www.w3.org/2000/svg" viewBox="0 0 3.53 5" height="50px" width="40px"><defs><style>.cls-1{fill:#3057cd;}.cls-2{fill:#fff;}</style></defs><g id="Layer_2" data-name="Layer 2"><g id="Layer_1-2" data-name="Layer 1"><g id="Layer_2-2" data-name="Layer 2"><g id="Layer_1-2-2" data-name="Layer 1-2"><path class="cls-1" d="M.82,3.75A6.53,6.53,0,0,1,.17,2.6,2.22,2.22,0,0,1,0,1.72,1.79,1.79,0,0,1,1.27.07a1.78,1.78,0,0,1,2,.85,1,1,0,0,1,.16.39,1.87,1.87,0,0,1,0,1,4.21,4.21,0,0,1-.51,1.07C2.64,3.86,1.82,5,1.82,5S1.07,4.12.82,3.75Z"/><path class="cls-2" d="M.67,1.76V1.42s0,0,0,0c.32-.24.66-.47,1-.71a.09.09,0,0,1,.1,0c.32.24.67.47,1,.71,0,0,0,0,0,.06v.3H2.64v1s0,.09-.07.09H2.38V1.7H1.12V2.81H.92A.11.11,0,0,1,.86,2.7V1.76Z"/><path class="cls-2" d="M1.27,2.81V2.6h1v.21Z"/><path class="cls-2" d="M1.27,2.45V2.23h1v.22Z"/><path class="cls-2" d="M2.23,1.87v.21h-1V1.87Z"/></g></g></g></g></svg>