<svg xmlns="http://www.w3.org/2000/svg" width="38.37" height="31.023" viewBox="0 0 38.37 31.023">
  <path id="Icon_awesome-biking" data-name="Icon awesome-biking" d="M23.981,5.817a2.893,2.893,0,0,0,2.878-2.908,2.878,2.878,0,1,0-5.756,0,2.893,2.893,0,0,0,2.878,2.908Zm-.24,7.331a1.9,1.9,0,0,0,1.2.424h3.837a1.939,1.939,0,0,0,0-3.878H25.613l-4.27-3.454a1.9,1.9,0,0,0-2.447.041L12.182,12.1a1.951,1.951,0,0,0,.185,3.085l4.9,3.3v6.718a1.919,1.919,0,1,0,3.837,0V17.45a1.944,1.944,0,0,0-.854-1.613l-2.48-1.671,3.492-3.025ZM30.7,15.511a7.756,7.756,0,1,0,7.674,7.756A7.715,7.715,0,0,0,30.7,15.511Zm0,11.633a3.878,3.878,0,1,1,3.837-3.878A3.858,3.858,0,0,1,30.7,27.145ZM7.674,15.511a7.756,7.756,0,0,0,0,15.511,7.756,7.756,0,0,0,0-15.511Zm0,11.633a3.878,3.878,0,1,1,3.837-3.878A3.858,3.858,0,0,1,7.674,27.145Z" fill="#fff"/>
</svg>
